<svg xmlns="http://www.w3.org/2000/svg" xmlns:xlink="http://www.w3.org/1999/xlink" width="500" zoomAndPan="magnify" viewBox="0 0 375 374.999991" height="500" preserveAspectRatio="xMidYMid meet" version="1.2"><defs><clipPath id="af6c1f3444"><path d="M 35 55 L 235 55 L 235 370.917969 L 35 370.917969 Z M 35 55 "/></clipPath><clipPath id="159eddb4b7"><path d="M 284.359375 102 L 360.53125 102 L 360.53125 222.914062 L 284.359375 222.914062 Z M 284.359375 102 "/></clipPath><clipPath id="0a2d736527"><path d="M 354 105 L 360.53125 105 L 360.53125 219.792969 L 354 219.792969 Z M 354 105 "/></clipPath><clipPath id="99558bfe5e"><path d="M 322 102 L 360.53125 102 L 360.53125 222.914062 L 322 222.914062 Z M 322 102 "/></clipPath></defs><g id="90d1e16e8c"><g clip-rule="nonzero" clip-path="url(#af6c1f3444)"><path style=" stroke:none;fill-rule:nonzero;fill:#ffffff;fill-opacity:1;" d="M 105.90625 242.257812 L 47.617188 300.550781 C 31.511719 316.652344 31.511719 342.75 47.617188 358.851562 C 63.707031 374.941406 89.804688 374.941406 105.90625 358.851562 L 222.496094 242.257812 C 238.597656 226.15625 238.597656 200.058594 222.496094 183.957031 L 105.90625 67.367188 C 89.804688 51.261719 63.707031 51.261719 47.617188 67.367188 C 31.511719 83.46875 31.511719 109.566406 47.617188 125.667969 L 105.90625 183.957031 C 122.007812 200.058594 122.007812 226.15625 105.90625 242.257812 "/></g><path style=" stroke:none;fill-rule:nonzero;fill:#ffffff;fill-opacity:1;" d="M 45.871094 224.183594 L 23.699219 246.34375 C 17.59375 252.460938 17.59375 262.382812 23.699219 268.503906 C 29.820312 274.621094 39.753906 274.621094 45.871094 268.503906 L 90.179688 224.183594 C 96.300781 218.0625 96.300781 208.140625 90.179688 202.023438 L 45.871094 157.703125 C 39.753906 151.582031 29.820312 151.582031 23.699219 157.703125 C 17.59375 163.820312 17.59375 173.742188 23.699219 179.863281 L 45.871094 202.023438 C 51.980469 208.140625 51.980469 218.0625 45.871094 224.183594 "/><path style=" stroke:none;fill-rule:nonzero;fill:#000000;fill-opacity:1;" d="M 34.792969 273.085938 C 33.71875 273.085938 32.632812 272.976562 31.574219 272.757812 C 34.464844 272.148438 37.207031 270.746094 39.449219 268.503906 L 83.769531 224.183594 C 89.875 218.0625 89.875 208.140625 83.769531 202.023438 L 39.449219 157.703125 C 37.207031 155.472656 34.464844 154.058594 31.574219 153.460938 C 32.632812 153.238281 33.71875 153.128906 34.792969 153.128906 C 38.800781 153.128906 42.8125 154.652344 45.871094 157.703125 L 90.179688 202.023438 C 93.242188 205.082031 94.777344 209.09375 94.777344 213.101562 C 94.777344 217.113281 93.242188 221.121094 90.179688 224.183594 L 45.871094 268.503906 C 42.8125 271.5625 38.800781 273.085938 34.792969 273.085938 "/><path style=" stroke:none;fill-rule:nonzero;fill:#000000;fill-opacity:1;" d="M 202.53125 262.226562 L 144.449219 204.144531 C 128.359375 188.039062 128.359375 161.945312 144.449219 145.839844 L 164.414062 125.875 L 222.496094 183.957031 C 230.554688 192.003906 234.578125 202.558594 234.578125 213.101562 C 234.578125 223.660156 230.554688 234.203125 222.496094 242.257812 L 202.53125 262.226562 "/><path style=" stroke:none;fill-rule:nonzero;fill:#cc5500;fill-opacity:1;" d="M 273.742188 133.140625 L 332.042969 74.835938 C 348.144531 58.746094 348.144531 32.636719 332.042969 16.546875 C 315.941406 0.445312 289.84375 0.445312 273.742188 16.546875 L 157.148438 133.140625 C 141.058594 149.230469 141.058594 175.339844 157.148438 191.429688 L 273.742188 308.019531 C 289.84375 324.125 315.941406 324.125 332.042969 308.019531 C 348.144531 291.929688 348.144531 265.820312 332.042969 249.730469 L 273.742188 191.429688 C 257.652344 175.339844 257.652344 149.230469 273.742188 133.140625 "/><g clip-rule="nonzero" clip-path="url(#159eddb4b7)"><path style=" stroke:none;fill-rule:nonzero;fill:#cc5500;fill-opacity:1;" d="M 333.785156 151.203125 L 355.945312 129.042969 C 362.066406 122.925781 362.066406 113.003906 355.945312 106.882812 C 349.828125 100.765625 339.90625 100.765625 333.785156 106.882812 L 289.464844 151.203125 C 283.347656 157.324219 283.347656 167.246094 289.464844 173.363281 L 333.785156 217.6875 C 339.90625 223.804688 349.828125 223.804688 355.945312 217.6875 C 362.066406 211.566406 362.066406 201.644531 355.945312 195.523438 L 333.785156 173.363281 C 327.667969 167.246094 327.667969 157.324219 333.785156 151.203125 "/></g><g clip-rule="nonzero" clip-path="url(#0a2d736527)"><path style=" stroke:none;fill-rule:nonzero;fill:#ffffff;fill-opacity:1;" d="M 354.117188 219.257812 C 354.753906 218.78125 355.375 218.257812 355.945312 217.6875 C 359.007812 214.625 360.53125 210.617188 360.53125 206.605469 C 360.53125 210.617188 359.007812 214.625 355.945312 217.6875 C 355.375 218.257812 354.753906 218.78125 354.117188 219.257812 M 355.945312 106.882812 C 355.410156 106.347656 354.835938 105.847656 354.238281 105.398438 C 354.835938 105.847656 355.410156 106.347656 355.945312 106.882812 "/></g><g clip-rule="nonzero" clip-path="url(#99558bfe5e)"><path style=" stroke:none;fill-rule:nonzero;fill:#cc5500;fill-opacity:1;" d="M 344.878906 222.269531 C 343.792969 222.269531 342.722656 222.160156 341.660156 221.925781 C 344.539062 221.332031 347.28125 219.917969 349.523438 217.6875 C 355.640625 211.566406 355.640625 201.644531 349.523438 195.523438 L 327.363281 173.363281 C 321.242188 167.246094 321.242188 157.324219 327.363281 151.203125 L 349.523438 129.042969 C 355.640625 122.925781 355.640625 113.003906 349.523438 106.882812 C 347.28125 104.640625 344.539062 103.238281 341.660156 102.628906 C 342.722656 102.410156 343.792969 102.300781 344.878906 102.300781 C 348.167969 102.300781 351.472656 103.335938 354.238281 105.398438 C 354.835938 105.847656 355.410156 106.347656 355.945312 106.882812 C 359.007812 109.945312 360.53125 113.953125 360.53125 117.964844 C 360.53125 121.972656 359.007812 125.984375 355.945312 129.042969 L 333.785156 151.203125 C 330.726562 154.265625 329.191406 158.273438 329.191406 162.285156 C 329.191406 166.296875 330.726562 170.304688 333.785156 173.363281 L 355.945312 195.523438 C 359.007812 198.585938 360.53125 202.59375 360.53125 206.605469 C 360.53125 210.617188 359.007812 214.625 355.945312 217.6875 C 355.375 218.257812 354.753906 218.78125 354.117188 219.257812 C 351.375 221.269531 348.121094 222.269531 344.878906 222.269531 "/></g></g></svg>