<svg xmlns="http://www.w3.org/2000/svg" xmlns:xlink="http://www.w3.org/1999/xlink" width="500" zoomAndPan="magnify" viewBox="0 0 375 374.999991" height="500" preserveAspectRatio="xMidYMid meet" version="1.2"><defs><filter x="0%" y="0%" width="100%" filterUnits="objectBoundingBox" id="8577149b49" height="100%"><feColorMatrix values="0 0 0 0 1 0 0 0 0 1 0 0 0 0 1 0 0 0 1 0" type="matrix" in="SourceGraphic"/></filter><clipPath id="77137e4b75"><path d="M 5.363281 16 L 62 16 L 62 105.246094 L 5.363281 105.246094 Z M 5.363281 16 "/></clipPath><clipPath id="1304e3e110"><path d="M 0.839844 43 L 23 43 L 23 78 L 0.839844 78 Z M 0.839844 43 "/></clipPath><clipPath id="76b6319037"><path d="M 75.792969 29.15625 L 97.273438 29.15625 L 97.273438 63.492188 L 75.792969 63.492188 Z M 75.792969 29.15625 "/></clipPath><clipPath id="a2afaf6cd1"><path d="M 95.160156 30.039062 L 97.273438 30.039062 L 97.273438 62.609375 L 95.160156 62.609375 Z M 95.160156 30.039062 "/></clipPath><clipPath id="0bddf797c5"><path d="M 86.355469 29.15625 L 97.273438 29.15625 L 97.273438 63.492188 L 86.355469 63.492188 Z M 86.355469 29.15625 "/></clipPath><clipPath id="8d20049dd1"><rect x="0" width="99" y="0" height="106"/></clipPath><clipPath id="610b046146"><path d="M 98 0.121094 L 131 0.121094 L 131 33 L 98 33 Z M 98 0.121094 "/></clipPath><clipPath id="2ce187ce11"><rect x="0" width="162" y="0" height="41"/></clipPath><clipPath id="d196822444"><rect x="0" width="49" y="0" height="16"/></clipPath></defs><g id="65f7398c15"><g mask="url(#ecfbe4ad7c)" transform="matrix(1,0,0,1,135,107)"><g clip-path="url(#8d20049dd1)"><g clip-rule="nonzero" clip-path="url(#77137e4b75)"><path style=" stroke:none;fill-rule:nonzero;fill:#000000;fill-opacity:1;" d="M 25.449219 68.949219 L 9.003906 85.394531 C 4.460938 89.9375 4.460938 97.296875 9.003906 101.839844 C 13.542969 106.378906 20.90625 106.378906 25.449219 101.839844 L 58.339844 68.949219 C 62.882812 64.40625 62.882812 57.042969 58.339844 52.5 L 25.449219 19.609375 C 20.90625 15.066406 13.542969 15.066406 9.003906 19.609375 C 4.460938 24.152344 4.460938 31.511719 9.003906 36.054688 L 25.449219 52.5 C 29.992188 57.042969 29.992188 64.40625 25.449219 68.949219 "/></g><g clip-rule="nonzero" clip-path="url(#1304e3e110)"><path style=" stroke:none;fill-rule:nonzero;fill:#000000;fill-opacity:1;" d="M 8.511719 63.847656 L 2.257812 70.101562 C 0.535156 71.828125 0.535156 74.625 2.257812 76.351562 C 3.984375 78.078125 6.785156 78.078125 8.511719 76.351562 L 21.011719 63.847656 C 22.738281 62.121094 22.738281 59.324219 21.011719 57.597656 L 8.511719 45.09375 C 6.785156 43.367188 3.984375 43.367188 2.257812 45.09375 C 0.535156 46.820312 0.535156 49.617188 2.257812 51.34375 L 8.511719 57.597656 C 10.234375 59.324219 10.234375 62.121094 8.511719 63.847656 "/></g><path style=" stroke:none;fill-rule:nonzero;fill:#f9f8f9;fill-opacity:1;" d="M 5.386719 77.644531 C 5.082031 77.644531 4.777344 77.613281 4.476562 77.550781 C 5.292969 77.378906 6.066406 76.984375 6.699219 76.351562 L 19.203125 63.847656 C 20.925781 62.121094 20.925781 59.324219 19.203125 57.597656 L 6.699219 45.09375 C 6.066406 44.464844 5.292969 44.066406 4.476562 43.894531 C 4.777344 43.835938 5.082031 43.804688 5.386719 43.804688 C 6.515625 43.804688 7.648438 44.234375 8.511719 45.09375 L 21.011719 57.597656 C 21.875 58.460938 22.308594 59.589844 22.308594 60.722656 C 22.308594 61.855469 21.875 62.984375 21.011719 63.847656 L 8.511719 76.351562 C 7.648438 77.214844 6.515625 77.644531 5.386719 77.644531 "/><path style=" stroke:none;fill-rule:nonzero;fill:#f9f8f9;fill-opacity:1;" d="M 52.707031 74.582031 L 36.320312 58.195312 C 31.78125 53.652344 31.78125 46.289062 36.320312 41.746094 L 41.953125 36.113281 L 58.339844 52.5 C 60.613281 54.769531 61.75 57.75 61.75 60.722656 C 61.75 63.699219 60.613281 66.675781 58.339844 68.949219 L 52.707031 74.582031 "/><path style=" stroke:none;fill-rule:nonzero;fill:#000000;fill-opacity:1;" d="M 72.796875 38.164062 L 89.246094 21.714844 C 93.789062 17.175781 93.789062 9.808594 89.246094 5.269531 C 84.703125 0.726562 77.339844 0.726562 72.796875 5.269531 L 39.90625 38.164062 C 35.367188 42.703125 35.367188 50.070312 39.90625 54.609375 L 72.796875 87.5 C 77.339844 92.042969 84.703125 92.042969 89.246094 87.5 C 93.789062 82.960938 93.789062 75.59375 89.246094 71.054688 L 72.796875 54.609375 C 68.257812 50.070312 68.257812 42.703125 72.796875 38.164062 "/><g clip-rule="nonzero" clip-path="url(#76b6319037)"><path style=" stroke:none;fill-rule:nonzero;fill:#000000;fill-opacity:1;" d="M 89.738281 43.261719 L 95.988281 37.007812 C 97.714844 35.28125 97.714844 32.484375 95.988281 30.757812 C 94.261719 29.03125 91.464844 29.03125 89.738281 30.757812 L 77.234375 43.261719 C 75.507812 44.988281 75.507812 47.785156 77.234375 49.511719 L 89.738281 62.015625 C 91.464844 63.742188 94.261719 63.742188 95.988281 62.015625 C 97.714844 60.289062 97.714844 57.488281 95.988281 55.765625 L 89.738281 49.511719 C 88.011719 47.785156 88.011719 44.988281 89.738281 43.261719 "/></g><g clip-rule="nonzero" clip-path="url(#a2afaf6cd1)"><path style=" stroke:none;fill-rule:nonzero;fill:#000000;fill-opacity:1;" d="M 95.472656 62.460938 C 95.652344 62.324219 95.828125 62.175781 95.988281 62.015625 C 96.851562 61.152344 97.28125 60.019531 97.28125 58.890625 C 97.28125 60.019531 96.851562 61.152344 95.988281 62.015625 C 95.828125 62.175781 95.652344 62.324219 95.472656 62.460938 M 95.988281 30.757812 C 95.839844 30.605469 95.675781 30.464844 95.507812 30.335938 C 95.675781 30.464844 95.839844 30.605469 95.988281 30.757812 "/></g><g clip-rule="nonzero" clip-path="url(#0bddf797c5)"><path style=" stroke:none;fill-rule:nonzero;fill:#000000;fill-opacity:1;" d="M 92.867188 63.308594 C 92.5625 63.308594 92.257812 63.277344 91.957031 63.210938 C 92.769531 63.042969 93.542969 62.644531 94.175781 62.015625 C 95.902344 60.289062 95.902344 57.488281 94.175781 55.765625 L 87.925781 49.511719 C 86.199219 47.785156 86.199219 44.988281 87.925781 43.261719 L 94.175781 37.007812 C 95.902344 35.28125 95.902344 32.484375 94.175781 30.757812 C 93.542969 30.125 92.769531 29.726562 91.957031 29.554688 C 92.257812 29.496094 92.5625 29.464844 92.867188 29.464844 C 93.796875 29.464844 94.726562 29.753906 95.507812 30.335938 C 95.675781 30.464844 95.839844 30.605469 95.988281 30.757812 C 96.851562 31.621094 97.28125 32.75 97.28125 33.882812 C 97.28125 35.015625 96.851562 36.144531 95.988281 37.007812 L 89.738281 43.261719 C 88.875 44.125 88.441406 45.253906 88.441406 46.386719 C 88.441406 47.515625 88.875 48.648438 89.738281 49.511719 L 95.988281 55.765625 C 96.851562 56.628906 97.28125 57.757812 97.28125 58.890625 C 97.28125 60.019531 96.851562 61.152344 95.988281 62.015625 C 95.828125 62.175781 95.652344 62.324219 95.472656 62.460938 C 94.699219 63.027344 93.78125 63.308594 92.867188 63.308594 "/></g></g><mask id="ecfbe4ad7c"><g filter="url(#8577149b49)"><rect x="0" width="375" y="0" height="374.999991" style="fill:#000000;fill-opacity:0.2;stroke:none;"/></g></mask></g><g mask="url(#8c9c6d3ee8)" transform="matrix(1,0,0,1,102,213)"><g clip-path="url(#2ce187ce11)"><g style="fill:#000000;fill-opacity:1;"><g transform="translate(0.736991, 32.118638)"><path style="stroke:none" d="M 41.1875 0 L 34.421875 0 L 31.390625 -20.0625 L 22.21875 -0.046875 L 20.59375 -0.046875 L 11.421875 -20.0625 L 8.390625 0 L 1.578125 0 L 6.40625 -30.734375 L 13.078125 -30.734375 L 21.375 -11.90625 L 29.71875 -30.734375 L 36.390625 -30.734375 Z M 41.1875 0 "/></g></g><g style="fill:#000000;fill-opacity:1;"><g transform="translate(41.038115, 32.118638)"><path style="stroke:none" d="M 23.921875 0 L 21.78125 -5.84375 L 9.53125 -5.84375 L 7.421875 0 L 0.390625 0 L 12.421875 -30.734375 L 18.703125 -30.734375 L 31.125 0 Z M 15.625 -22.609375 L 11.640625 -11.640625 L 19.671875 -11.640625 Z M 15.625 -22.609375 "/></g></g><g style="fill:#000000;fill-opacity:1;"><g transform="translate(70.056608, 32.118638)"><path style="stroke:none" d="M 20.421875 0 L 14.4375 -10.5 L 10.1875 -10.5 L 10.1875 0 L 3.515625 0 L 3.515625 -30.734375 L 15.9375 -30.734375 C 17.988281 -30.734375 19.816406 -30.289062 21.421875 -29.40625 C 23.035156 -28.53125 24.3125 -27.332031 25.25 -25.8125 C 26.1875 -24.289062 26.65625 -22.535156 26.65625 -20.546875 C 26.65625 -18.554688 26.148438 -16.773438 25.140625 -15.203125 C 24.128906 -13.640625 22.773438 -12.453125 21.078125 -11.640625 L 27.875 0 Z M 10.1875 -24.59375 L 10.1875 -16.640625 L 15.5 -16.640625 C 16.875 -16.640625 17.957031 -17.007812 18.75 -17.75 C 19.539062 -18.5 19.9375 -19.445312 19.9375 -20.59375 C 19.9375 -21.757812 19.539062 -22.71875 18.75 -23.46875 C 17.957031 -24.21875 16.875 -24.59375 15.5 -24.59375 Z M 10.1875 -24.59375 "/></g></g><g clip-rule="nonzero" clip-path="url(#610b046146)"><g style="fill:#000000;fill-opacity:1;"><g transform="translate(96.572728, 32.118638)"><path style="stroke:none" d="M 18.09375 0.65625 C 15.75 0.65625 13.582031 0.253906 11.59375 -0.546875 C 9.601562 -1.347656 7.867188 -2.472656 6.390625 -3.921875 C 4.910156 -5.378906 3.757812 -7.078125 2.9375 -9.015625 C 2.125 -10.960938 1.71875 -13.078125 1.71875 -15.359375 C 1.71875 -17.648438 2.125 -19.765625 2.9375 -21.703125 C 3.757812 -23.648438 4.910156 -25.347656 6.390625 -26.796875 C 7.867188 -28.253906 9.601562 -29.382812 11.59375 -30.1875 C 13.582031 -30.988281 15.75 -31.390625 18.09375 -31.390625 C 20.4375 -31.390625 22.601562 -30.988281 24.59375 -30.1875 C 26.582031 -29.382812 28.304688 -28.253906 29.765625 -26.796875 C 31.234375 -25.347656 32.375 -23.648438 33.1875 -21.703125 C 34.007812 -19.765625 34.421875 -17.648438 34.421875 -15.359375 C 34.421875 -13.078125 34.007812 -10.960938 33.1875 -9.015625 C 32.375 -7.078125 31.234375 -5.378906 29.765625 -3.921875 C 28.304688 -2.472656 26.582031 -1.347656 24.59375 -0.546875 C 22.601562 0.253906 20.4375 0.65625 18.09375 0.65625 Z M 18.09375 -5.625 C 19.9375 -5.625 21.582031 -6.046875 23.03125 -6.890625 C 24.476562 -7.742188 25.617188 -8.898438 26.453125 -10.359375 C 27.285156 -11.828125 27.703125 -13.492188 27.703125 -15.359375 C 27.703125 -17.210938 27.285156 -18.875 26.453125 -20.34375 C 25.617188 -21.820312 24.476562 -22.984375 23.03125 -23.828125 C 21.582031 -24.679688 19.9375 -25.109375 18.09375 -25.109375 C 16.269531 -25.109375 14.625 -24.679688 13.15625 -23.828125 C 11.695312 -22.984375 10.546875 -21.820312 9.703125 -20.34375 C 8.859375 -18.875 8.4375 -17.210938 8.4375 -15.359375 C 8.4375 -13.515625 8.859375 -11.851562 9.703125 -10.375 C 10.546875 -8.90625 11.695312 -7.742188 13.15625 -6.890625 C 14.625 -6.046875 16.269531 -5.625 18.09375 -5.625 Z M 18.09375 -5.625 "/></g></g></g><g style="fill:#000000;fill-opacity:1;"><g transform="translate(130.20086, 32.118638)"><path style="stroke:none" d="M 23 -30.734375 L 29.5 -30.734375 L 29.5 0 L 23.96875 0 L 10.046875 -19.1875 L 10.046875 0 L 3.515625 0 L 3.515625 -30.734375 L 9.53125 -30.734375 L 23 -11.984375 Z M 23 -30.734375 "/></g></g></g><mask id="8c9c6d3ee8"><g filter="url(#8577149b49)"><rect x="0" width="375" y="0" height="374.999991" style="fill:#000000;fill-opacity:0.2;stroke:none;"/></g></mask></g><g mask="url(#095fa5f2db)" transform="matrix(1,0,0,1,164,252)"><g clip-path="url(#d196822444)"><g style="fill:#000000;fill-opacity:1;"><g transform="translate(1.636108, 11.786256)"><path style="stroke:none" d="M 1.0625 -8.90625 L 3.109375 -8.90625 L 3.109375 -1.671875 L 7.578125 -1.671875 L 7.578125 0 L 1.0625 0 Z M 1.0625 -8.90625 "/></g></g><g style="fill:#000000;fill-opacity:1;"><g transform="translate(12.131837, 11.786256)"><path style="stroke:none" d="M 6.921875 -1.90625 L 2.78125 -1.90625 L 2 0 L -0.109375 0 L 3.859375 -8.90625 L 5.890625 -8.90625 L 9.875 0 L 7.703125 0 Z M 6.265625 -3.46875 L 4.859375 -6.875 L 3.453125 -3.46875 Z M 6.265625 -3.46875 "/></g></g><g style="fill:#000000;fill-opacity:1;"><g transform="translate(24.688551, 11.786256)"><path style="stroke:none" d="M 7.59375 -4.625 C 8.101562 -4.46875 8.5 -4.195312 8.78125 -3.8125 C 9.070312 -3.4375 9.21875 -2.972656 9.21875 -2.421875 C 9.21875 -1.648438 8.914062 -1.050781 8.3125 -0.625 C 7.707031 -0.207031 6.820312 0 5.65625 0 L 1.0625 0 L 1.0625 -8.90625 L 5.40625 -8.90625 C 6.488281 -8.90625 7.320312 -8.695312 7.90625 -8.28125 C 8.488281 -7.863281 8.78125 -7.300781 8.78125 -6.59375 C 8.78125 -6.15625 8.675781 -5.765625 8.46875 -5.421875 C 8.257812 -5.085938 7.96875 -4.820312 7.59375 -4.625 Z M 3.109375 -7.34375 L 3.109375 -5.25 L 5.15625 -5.25 C 5.664062 -5.25 6.050781 -5.335938 6.3125 -5.515625 C 6.570312 -5.691406 6.703125 -5.957031 6.703125 -6.3125 C 6.703125 -6.65625 6.570312 -6.910156 6.3125 -7.078125 C 6.050781 -7.253906 5.664062 -7.34375 5.15625 -7.34375 Z M 5.5 -1.546875 C 6.050781 -1.546875 6.460938 -1.632812 6.734375 -1.8125 C 7.003906 -1.988281 7.140625 -2.265625 7.140625 -2.640625 C 7.140625 -3.378906 6.59375 -3.75 5.5 -3.75 L 3.109375 -3.75 L 3.109375 -1.546875 Z M 5.5 -1.546875 "/></g></g><g style="fill:#000000;fill-opacity:1;"><g transform="translate(37.232541, 11.786256)"><path style="stroke:none" d="M 3.984375 0.15625 C 3.273438 0.15625 2.59375 0.0625 1.9375 -0.125 C 1.28125 -0.320312 0.753906 -0.570312 0.359375 -0.875 L 1.0625 -2.421875 C 1.4375 -2.148438 1.882812 -1.925781 2.40625 -1.75 C 2.9375 -1.582031 3.46875 -1.5 4 -1.5 C 4.582031 -1.5 5.007812 -1.582031 5.28125 -1.75 C 5.5625 -1.925781 5.703125 -2.160156 5.703125 -2.453125 C 5.703125 -2.660156 5.617188 -2.832031 5.453125 -2.96875 C 5.296875 -3.113281 5.085938 -3.226562 4.828125 -3.3125 C 4.566406 -3.40625 4.21875 -3.5 3.78125 -3.59375 C 3.101562 -3.757812 2.546875 -3.921875 2.109375 -4.078125 C 1.679688 -4.242188 1.3125 -4.503906 1 -4.859375 C 0.6875 -5.210938 0.53125 -5.6875 0.53125 -6.28125 C 0.53125 -6.800781 0.671875 -7.269531 0.953125 -7.6875 C 1.234375 -8.101562 1.65625 -8.4375 2.21875 -8.6875 C 2.78125 -8.9375 3.46875 -9.0625 4.28125 -9.0625 C 4.851562 -9.0625 5.410156 -8.992188 5.953125 -8.859375 C 6.492188 -8.722656 6.96875 -8.523438 7.375 -8.265625 L 6.734375 -6.703125 C 5.910156 -7.171875 5.09375 -7.40625 4.28125 -7.40625 C 3.695312 -7.40625 3.265625 -7.3125 2.984375 -7.125 C 2.710938 -6.9375 2.578125 -6.691406 2.578125 -6.390625 C 2.578125 -6.078125 2.734375 -5.847656 3.046875 -5.703125 C 3.367188 -5.554688 3.859375 -5.410156 4.515625 -5.265625 C 5.191406 -5.109375 5.742188 -4.945312 6.171875 -4.78125 C 6.609375 -4.625 6.984375 -4.367188 7.296875 -4.015625 C 7.609375 -3.671875 7.765625 -3.203125 7.765625 -2.609375 C 7.765625 -2.097656 7.617188 -1.628906 7.328125 -1.203125 C 7.046875 -0.785156 6.617188 -0.453125 6.046875 -0.203125 C 5.484375 0.0351562 4.796875 0.15625 3.984375 0.15625 Z M 3.984375 0.15625 "/></g></g></g><mask id="095fa5f2db"><g filter="url(#8577149b49)"><rect x="0" width="375" y="0" height="374.999991" style="fill:#000000;fill-opacity:0.2;stroke:none;"/></g></mask></g></g></svg>