<svg width="500" height="500" viewBox="0 0 500 500" fill="none" xmlns="http://www.w3.org/2000/svg">
<g clip-path="url(#clip0_13_59)">
<mask id="mask0_13_59" style="mask-type:luminance" maskUnits="userSpaceOnUse" x="114" y="45" width="181" height="289">
<path d="M114.511 45.6743H294.45V334H114.511V45.6743Z" fill="white"/>
</mask>
<g mask="url(#mask0_13_59)">
<path d="M178.325 216.736L126.077 269.866C111.644 284.542 111.644 308.318 126.077 322.995C140.498 337.659 163.892 337.659 178.325 322.995L282.822 216.736C297.255 202.059 297.255 178.271 282.822 163.594L178.325 57.335C163.892 42.6581 140.498 42.6581 126.077 57.335C111.644 72.0119 111.644 95.7876 126.077 110.464L178.325 163.594C192.759 178.271 192.759 202.059 178.325 216.736Z" fill="white"/>
</g>
<mask id="mask1_13_59" style="mask-type:luminance" maskUnits="userSpaceOnUse" x="99" y="132" width="72" height="114">
<path d="M99.134 132.903H170.544V245.976H99.134V132.903Z" fill="white"/>
</mask>
<g mask="url(#mask1_13_59)">
<path d="M124.513 200.255L104.644 220.459C99.1712 226.037 99.1712 235.073 104.644 240.651C110.13 246.229 119.028 246.229 124.513 240.651L164.227 200.255C169.712 194.677 169.712 185.641 164.227 180.063L124.513 139.667C119.028 134.089 110.13 134.089 104.644 139.667C99.1712 145.245 99.1712 154.281 104.644 159.858L124.513 180.063C129.986 185.641 129.986 194.677 124.513 200.255Z" fill="white"/>
</g>
<path d="M264.926 234.934L212.864 181.994C198.443 167.317 198.443 143.528 212.864 128.852L230.76 110.654L282.822 163.594C290.045 170.926 293.656 180.542 293.656 190.159C293.656 199.775 290.045 209.391 282.822 216.736L264.926 234.934Z" fill="black"/>
<path d="M328.753 117.279L381.014 64.1371C395.447 49.4729 395.447 25.6719 381.014 11.0076C366.58 -3.66921 343.186 -3.66921 328.753 11.0076L224.257 117.279C209.836 131.943 209.836 155.744 224.257 170.409L328.753 276.668C343.186 291.344 366.58 291.344 381.014 276.668C395.447 262.003 395.447 238.202 381.014 223.538L328.753 170.409C314.332 155.744 314.332 131.943 328.753 117.279Z" fill="#CC5500"/>
<mask id="mask2_13_59" style="mask-type:luminance" maskUnits="userSpaceOnUse" x="338" y="88" width="69" height="112">
<path d="M338.272 88.1778H406.517V199.106H338.272V88.1778Z" fill="white"/>
</mask>
<g mask="url(#mask2_13_59)">
<path d="M382.577 133.748L402.434 113.544C407.92 107.966 407.92 98.93 402.434 93.352C396.949 87.774 388.063 87.774 382.577 93.352L342.851 133.748C337.366 139.326 337.366 148.362 342.851 153.94L382.577 194.336C388.063 199.914 396.949 199.914 402.434 194.336C407.92 188.758 407.92 179.709 402.434 174.144L382.577 153.94C377.092 148.362 377.092 139.326 382.577 133.748Z" fill="#CC5500"/>
</g>
<mask id="mask3_13_59" style="mask-type:luminance" maskUnits="userSpaceOnUse" x="371" y="88" width="36" height="112">
<path d="M371.83 88.1778H406.517V199.106H371.83V88.1778Z" fill="white"/>
</mask>
<g mask="url(#mask3_13_59)">
<path d="M392.518 198.513C391.55 198.513 390.582 198.412 389.626 198.197C392.208 197.655 394.665 196.368 396.676 194.336C402.161 188.758 402.161 179.709 396.676 174.144L376.819 153.94C371.333 148.362 371.333 139.326 376.819 133.748L396.676 113.544C402.161 107.966 402.161 98.9299 396.676 93.3519C394.665 91.3075 392.208 90.0203 389.626 89.465C390.582 89.2757 391.55 89.1747 392.518 89.1747C395.472 89.1747 398.426 90.1086 400.908 91.989C401.441 92.4054 401.963 92.8597 402.434 93.3519C405.177 96.1409 406.542 99.788 406.542 103.448C406.542 107.108 405.177 110.755 402.434 113.544L382.577 133.748C379.835 136.537 378.457 140.184 378.457 143.844C378.457 147.491 379.835 151.151 382.577 153.94L402.434 174.144C405.177 176.933 406.542 180.58 406.542 184.24C406.542 187.887 405.177 191.547 402.434 194.336C401.925 194.853 401.367 195.333 400.796 195.774C398.339 197.604 395.422 198.513 392.518 198.513Z" fill="#CC5500"/>
</g>
<path d="M125.842 439.367H104.347L94.7169 374.551L65.5771 439.215H60.4143L31.2745 374.551L21.6439 439.367H0L15.3394 340.074H36.5365L62.8964 400.901L89.4052 340.074H110.602L125.842 439.367Z" fill="white"/>
<path d="M199.02 439.367L192.219 420.487H153.299L146.598 439.367H124.259L162.483 340.074H182.439L221.905 439.367H199.02ZM172.66 366.323L160.001 401.759H185.517L172.66 366.323Z" fill="white"/>
<path d="M280.088 439.367L261.075 405.444H247.572V439.367H226.375V340.074H265.84C272.356 340.074 278.164 341.512 283.265 344.364C288.39 347.191 292.449 351.066 295.427 355.975C298.406 360.896 299.895 366.563 299.895 372.986C299.895 379.422 298.282 385.177 295.08 390.25C291.865 395.298 287.559 399.135 282.173 401.759L303.767 439.367H280.088ZM247.572 359.912V385.606H264.45C268.819 385.606 272.257 384.42 274.776 382.022C277.283 379.599 278.549 376.545 278.549 372.835C278.549 369.074 277.283 365.97 274.776 363.547C272.257 361.124 268.819 359.912 264.45 359.912H247.572Z" fill="white"/>
<path d="M356.929 441.487C349.483 441.487 342.595 440.187 336.278 437.6C329.949 435.013 324.439 431.378 319.747 426.696C315.044 421.989 311.383 416.499 308.776 410.24C306.195 403.955 304.904 397.115 304.904 389.745C304.904 382.35 306.195 375.51 308.776 369.251C311.383 362.966 315.044 357.476 319.747 352.794C324.439 348.087 329.949 344.44 336.278 341.84C342.595 339.253 349.483 337.953 356.929 337.953C364.376 337.953 371.251 339.253 377.58 341.84C383.897 344.44 389.37 348.087 394.012 352.794C398.678 357.476 402.302 362.966 404.883 369.251C407.49 375.51 408.805 382.35 408.805 389.745C408.805 397.115 407.49 403.955 404.883 410.24C402.302 416.499 398.678 421.989 394.012 426.696C389.37 431.378 383.897 435.013 377.58 437.6C371.251 440.187 364.376 441.487 356.929 441.487ZM356.929 421.194C362.787 421.194 368.012 419.831 372.616 417.105C377.208 414.354 380.832 410.618 383.488 405.899C386.131 401.154 387.459 395.778 387.459 389.745C387.459 383.763 386.131 378.387 383.488 373.642C380.832 368.872 377.208 365.111 372.616 362.385C368.012 359.634 362.787 358.246 356.929 358.246C351.134 358.246 345.909 359.634 341.242 362.385C336.601 365.111 332.952 368.872 330.271 373.642C327.591 378.387 326.25 383.763 326.25 389.745C326.25 395.702 327.591 401.078 330.271 405.848C332.952 410.593 336.601 414.354 341.242 417.105C345.909 419.831 351.134 421.194 356.929 421.194Z" fill="white"/>
<path d="M479.349 340.074H500V439.367H482.427L438.196 377.378V439.367H417.445V340.074H436.558L479.349 400.649V340.074Z" fill="white"/>
<path d="M198.2 470.722H204.703V494.094H218.901V499.495H198.2V470.722Z" fill="white"/>
<path d="M250.148 493.337H236.993L234.511 499.495H227.809L240.418 470.722H246.872L259.53 499.495H252.63L250.148 493.337ZM248.063 488.289L243.595 477.284L239.128 488.289H248.063Z" fill="white"/>
<path d="M292.159 484.553C293.772 485.058 295.038 485.942 295.932 487.178C296.85 488.39 297.322 489.892 297.322 491.671C297.322 494.17 296.354 496.101 294.443 497.476C292.519 498.826 289.702 499.495 286.003 499.495H271.409V470.722H285.209C288.647 470.722 291.29 471.404 293.152 472.741C295.001 474.092 295.932 475.909 295.932 478.193C295.932 479.606 295.597 480.868 294.939 481.979C294.269 483.064 293.35 483.922 292.159 484.553ZM277.912 475.77V482.534H284.415C286.028 482.534 287.257 482.257 288.088 481.676C288.907 481.108 289.329 480.25 289.329 479.102C289.329 477.991 288.907 477.171 288.088 476.628C287.257 476.06 286.028 475.77 284.415 475.77H277.912ZM285.507 494.498C287.257 494.498 288.56 494.22 289.429 493.64C290.285 493.072 290.719 492.176 290.719 490.964C290.719 488.579 288.982 487.38 285.507 487.38H277.912V494.498H285.507Z" fill="white"/>
<path d="M320.528 500C318.269 500 316.109 499.697 314.024 499.091C311.939 498.46 310.264 497.653 309.011 496.668L311.244 491.671C312.436 492.554 313.851 493.274 315.514 493.841C317.202 494.384 318.889 494.649 320.577 494.649C322.426 494.649 323.779 494.384 324.648 493.841C325.541 493.274 325.988 492.516 325.988 491.57C325.988 490.901 325.715 490.346 325.194 489.904C324.697 489.437 324.027 489.071 323.208 488.794C322.377 488.491 321.272 488.188 319.882 487.885C317.723 487.355 315.96 486.825 314.57 486.32C313.205 485.79 312.039 484.945 311.046 483.796C310.053 482.66 309.557 481.121 309.557 479.202C309.557 477.524 310.003 476.01 310.897 474.659C311.791 473.322 313.131 472.236 314.918 471.429C316.705 470.621 318.889 470.217 321.471 470.217C323.283 470.217 325.057 470.444 326.782 470.873C328.495 471.315 330.009 471.959 331.3 472.792L329.265 477.84C326.646 476.325 324.052 475.568 321.471 475.568C319.609 475.568 318.244 475.871 317.35 476.477C316.482 477.082 316.06 477.877 316.06 478.849C316.06 479.859 316.556 480.603 317.549 481.07C318.567 481.55 320.13 482.017 322.215 482.484C324.362 482.988 326.112 483.518 327.477 484.048C328.867 484.553 330.059 485.386 331.052 486.522C332.044 487.633 332.541 489.147 332.541 491.065C332.541 492.718 332.069 494.233 331.151 495.608C330.257 496.959 328.892 498.031 327.08 498.839C325.293 499.609 323.109 500 320.528 500Z" fill="white"/>
</g>
<defs>
<clipPath id="clip0_13_59">
<rect width="500" height="500" fill="white"/>
</clipPath>
</defs>
</svg>
