<svg width="500" height="500" viewBox="0 0 500 500" fill="none" xmlns="http://www.w3.org/2000/svg">
<g clip-path="url(#clip0_13_351)">
<mask id="mask0_13_351" style="mask-type:luminance" maskUnits="userSpaceOnUse" x="114" y="45" width="181" height="289">
<path d="M114.522 45.5847H294.451V333.098H114.522V45.5847Z" fill="white"/>
</mask>
<g mask="url(#mask0_13_351)">
<path d="M178.283 216.148L126.075 269.132C111.643 283.766 111.643 307.494 126.075 322.128C140.483 336.763 163.851 336.763 178.283 322.128L282.712 216.148C297.132 201.514 297.132 177.786 282.712 163.152L178.283 57.1714C163.851 42.537 140.483 42.537 126.075 57.1714C111.643 71.8059 111.643 95.5334 126.075 110.168L178.283 163.152C192.703 177.786 192.703 201.514 178.283 216.148Z" fill="black"/>
</g>
<mask id="mask1_13_351" style="mask-type:luminance" maskUnits="userSpaceOnUse" x="99" y="132" width="72" height="114">
<path d="M99.146 132.636H170.552V245.48H99.146V132.636Z" fill="white"/>
</mask>
<g mask="url(#mask1_13_351)">
<path d="M124.512 199.713L104.643 219.863C99.1832 225.43 99.1832 234.448 104.643 240.002C110.129 245.568 119.026 245.568 124.512 240.002L164.198 199.713C169.671 194.159 169.671 185.141 164.198 179.575L124.512 139.286C119.026 133.719 110.129 133.719 104.643 139.286C99.1832 144.852 99.1832 153.87 104.643 159.436L124.512 179.575C129.972 185.141 129.972 194.159 124.512 199.713Z" fill="black"/>
</g>
<path d="M264.829 234.296L212.807 181.501C198.387 166.867 198.387 143.14 212.807 128.505L230.69 110.357L282.712 163.152C289.922 170.469 293.533 180.066 293.533 189.65C293.533 199.247 289.922 208.831 282.712 216.148L264.829 234.296Z" fill="white"/>
<path d="M328.603 116.956L380.823 63.9597C395.256 49.3378 395.256 25.6103 380.823 10.9759C366.403 -3.65862 343.036 -3.65862 328.603 10.9759L224.175 116.956C209.767 131.591 209.767 155.318 224.175 169.94L328.603 275.933C343.036 290.567 366.403 290.567 380.823 275.933C395.256 261.298 395.256 237.571 380.823 222.936L328.603 169.94C314.195 155.318 314.195 131.591 328.603 116.956Z" fill="#CC5500"/>
<mask id="mask2_13_351" style="mask-type:luminance" maskUnits="userSpaceOnUse" x="338" y="87" width="69" height="112">
<path d="M338.121 87.9391H406.313V198.567H338.121V87.9391Z" fill="white"/>
</mask>
<g mask="url(#mask2_13_351)">
<path d="M382.387 133.379L402.243 113.241C407.716 107.674 407.716 98.6568 402.243 93.0901C396.758 87.5361 387.872 87.5361 382.387 93.0901L342.688 133.379C337.215 138.946 337.215 147.963 342.688 153.53L382.387 193.819C387.872 199.373 396.758 199.373 402.243 193.819C407.716 188.252 407.716 179.235 402.243 173.668L382.387 153.53C376.914 147.963 376.914 138.946 382.387 133.379Z" fill="#CC5500"/>
</g>
<mask id="mask3_13_351" style="mask-type:luminance" maskUnits="userSpaceOnUse" x="371" y="87" width="36" height="112">
<path d="M371.653 87.9391H406.313V198.567H371.653V87.9391Z" fill="white"/>
</mask>
<g mask="url(#mask3_13_351)">
<path d="M392.327 197.975C391.347 197.975 390.391 197.874 389.436 197.672C392.017 197.131 394.474 195.846 396.485 193.819C401.97 188.252 401.97 179.235 396.485 173.668L376.641 153.53C371.156 147.963 371.156 138.946 376.641 133.379L396.485 113.241C401.97 107.674 401.97 98.6568 396.485 93.0901C394.474 91.0499 392.017 89.7778 389.436 89.2237C390.391 89.0222 391.347 88.934 392.327 88.934C395.269 88.934 398.234 89.866 400.704 91.7425C401.25 92.1582 401.759 92.6115 402.243 93.0901C404.973 95.8734 406.338 99.5258 406.338 103.165C406.338 106.818 404.973 110.458 402.243 113.241L382.387 133.379C379.645 136.162 378.267 139.802 378.267 143.454C378.267 147.094 379.645 150.746 382.387 153.53L402.243 173.668C404.973 176.451 406.338 180.091 406.338 183.743C406.338 187.383 404.973 191.035 402.243 193.819C401.722 194.335 401.163 194.814 400.605 195.242C398.148 197.068 395.231 197.975 392.327 197.975Z" fill="#CC5500"/>
</g>
<path d="M125.835 439.31H104.342L94.7115 374.626L65.5733 439.158H60.4109L31.2727 374.626L21.6427 439.31H-3.33786e-06L15.3385 340.218H36.5344L62.8928 400.922L89.4002 340.218H110.596L125.835 439.31Z" fill="black"/>
<path d="M199.017 439.31L192.216 420.469H153.299L146.598 439.31H124.26L162.483 340.218H182.437L221.901 439.31H199.017ZM172.659 366.414L160.001 401.779H185.515L172.659 366.414Z" fill="black"/>
<path d="M280.087 439.31L261.075 405.456H247.573V439.31H226.377V340.218H265.84C272.356 340.218 278.163 341.654 283.264 344.5C288.389 347.321 292.447 351.188 295.425 356.087C298.404 360.999 299.893 366.654 299.893 373.064C299.893 379.487 298.28 385.23 295.078 390.293C291.864 395.331 287.558 399.159 282.172 401.779L303.765 439.31H280.087ZM247.573 360.016V385.658H264.451C268.819 385.658 272.256 384.474 274.775 382.082C277.282 379.663 278.548 376.616 278.548 372.913C278.548 369.16 277.282 366.062 274.775 363.644C272.256 361.225 268.819 360.016 264.451 360.016H247.573Z" fill="black"/>
<path d="M356.93 441.425C349.484 441.425 342.597 440.128 336.28 437.546C329.951 434.965 324.441 431.337 319.75 426.665C315.047 421.967 311.386 416.489 308.78 410.242C306.199 403.97 304.908 397.144 304.908 389.789C304.908 382.409 306.199 375.583 308.78 369.336C311.386 363.064 315.047 357.586 319.75 352.913C324.441 348.216 329.951 344.576 336.28 341.982C342.597 339.4 349.484 338.103 356.93 338.103C364.376 338.103 371.251 339.4 377.58 341.982C383.896 344.576 389.369 348.216 394.01 352.913C398.676 357.586 402.3 363.064 404.881 369.336C407.487 375.583 408.803 382.409 408.803 389.789C408.803 397.144 407.487 403.97 404.881 410.242C402.3 416.489 398.676 421.967 394.01 426.665C389.369 431.337 383.896 434.965 377.58 437.546C371.251 440.128 364.376 441.425 356.93 441.425ZM356.93 421.174C362.787 421.174 368.012 419.814 372.616 417.093C377.207 414.348 380.831 410.62 383.487 405.91C386.13 401.174 387.458 395.809 387.458 389.789C387.458 383.819 386.13 378.454 383.487 373.719C380.831 368.958 377.207 365.205 372.616 362.485C368.012 359.739 362.787 358.354 356.93 358.354C351.134 358.354 345.91 359.739 341.244 362.485C336.603 365.205 332.954 368.958 330.274 373.719C327.593 378.454 326.253 383.819 326.253 389.789C326.253 395.734 327.593 401.099 330.274 405.859C332.954 410.595 336.603 414.348 341.244 417.093C345.91 419.814 351.134 421.174 356.93 421.174Z" fill="black"/>
<path d="M479.35 340.218H500V439.31H482.428L438.199 377.447V439.31H417.45V340.218H436.561L479.35 400.671V340.218Z" fill="black"/>
<path d="M198.187 470.781H204.689V494.106H218.886V499.496H198.187V470.781Z" fill="black"/>
<path d="M250.145 493.35H236.991L234.509 499.496H227.808L240.416 470.781H246.869L259.527 499.496H252.627L250.145 493.35ZM248.06 488.313L243.593 477.33L239.125 488.313H248.06Z" fill="black"/>
<path d="M292.171 484.585C293.785 485.088 295.05 485.97 295.944 487.204C296.862 488.413 297.334 489.912 297.334 491.688C297.334 494.182 296.366 496.108 294.455 497.481C292.531 498.829 289.714 499.496 286.016 499.496H271.422V470.781H285.222C288.659 470.781 291.303 471.462 293.164 472.797C295.013 474.144 295.944 475.958 295.944 478.237C295.944 479.648 295.609 480.907 294.951 482.015C294.281 483.099 293.363 483.955 292.171 484.585ZM277.925 475.819V482.57H284.428C286.041 482.57 287.269 482.293 288.101 481.713C288.92 481.146 289.342 480.29 289.342 479.144C289.342 478.036 288.92 477.217 288.101 476.676C287.269 476.109 286.041 475.819 284.428 475.819H277.925ZM285.52 494.509C287.269 494.509 288.572 494.232 289.441 493.653C290.297 493.086 290.732 492.192 290.732 490.983C290.732 488.602 288.994 487.406 285.52 487.406H277.925V494.509H285.52Z" fill="black"/>
<path d="M320.556 500C318.297 500 316.138 499.698 314.053 499.093C311.968 498.463 310.293 497.657 309.039 496.675L311.273 491.688C312.464 492.569 313.879 493.287 315.542 493.854C317.23 494.396 318.918 494.66 320.605 494.66C322.454 494.66 323.807 494.396 324.676 493.854C325.569 493.287 326.016 492.532 326.016 491.587C326.016 490.92 325.743 490.365 325.222 489.925C324.725 489.459 324.055 489.093 323.236 488.816C322.405 488.514 321.3 488.212 319.91 487.91C317.751 487.381 315.989 486.852 314.599 486.348C313.234 485.819 312.067 484.975 311.075 483.829C310.082 482.696 309.585 481.159 309.585 479.245C309.585 477.57 310.032 476.058 310.926 474.711C311.819 473.376 313.159 472.293 314.946 471.487C316.733 470.681 318.918 470.278 321.499 470.278C323.311 470.278 325.085 470.504 326.81 470.933C328.523 471.373 330.037 472.016 331.327 472.847L329.292 477.885C326.674 476.373 324.08 475.618 321.499 475.618C319.637 475.618 318.272 475.92 317.379 476.524C316.51 477.129 316.088 477.922 316.088 478.892C316.088 479.9 316.585 480.643 317.577 481.109C318.595 481.587 320.159 482.053 322.243 482.519C324.39 483.023 326.14 483.552 327.505 484.081C328.895 484.585 330.086 485.416 331.079 486.549C332.072 487.658 332.568 489.169 332.568 491.083C332.568 492.733 332.097 494.244 331.178 495.617C330.285 496.965 328.92 498.035 327.108 498.841C325.321 499.61 323.137 500 320.556 500Z" fill="black"/>
</g>
<defs>
<clipPath id="clip0_13_351">
<rect width="500" height="500" fill="white"/>
</clipPath>
</defs>
</svg>
